<svg xmlns="http://www.w3.org/2000/svg" width="16" height="16" viewBox="0 0 24 24">
  <g>
    <rect width="16" height="16" x="0" y="0" fill="none" rx="0" ry="0"/>
    <path fill="#8B8B8B" fill-rule="evenodd"
          d="M12.0000025 10.5857c-1.8556-1.85559-2.66376-2.66373-4.29291-4.29281-.3905-.39052-1.02368-.39052-1.41421 0-.39051.39053-.39051 1.02369 0 1.41422 1.70056 1.70051 2.50314 2.50299 4.29292 4.29279-1.85561 1.8556-2.6638 2.6638-4.29289 4.293-.39054.3905-.39054 1.0237 0 1.4142.3905.3905 1.02368.3905 1.41418 0 0 0 2.68741-2.6875 4.29291-4.293 1.855 1.855 2.663 2.663 4.2929 4.293.3905.3905 1.0237.3905 1.4142 0 .3905-.3905.3905-1.0237 0-1.4142-1.7003-1.7004-2.503-2.5032-4.2929-4.293 1.855-1.855 2.6629-2.66295 4.2929-4.29278.3905-.39053.3905-1.02371 0-1.41421-.3905-.39054-1.0237-.39054-1.4142 0-1.7004 1.70027-2.5031 2.50294-4.2929 4.29279z"/>
  </g>
</svg>
